<svg width="539" height="259" viewBox="0 0 539 259" fill="none" xmlns="http://www.w3.org/2000/svg">
<rect x="153.5" y="218.5" width="29" height="31" fill="white" stroke="#5C5F60" stroke-width="3"/>
<rect x="34.5" y="29.5" width="267" height="188" rx="8.5" fill="white" stroke="#5C5F60" stroke-width="3"/>
<rect x="51.5" y="46.5" width="232" height="145" rx="8.5" fill="white" stroke="#5C5F60" stroke-width="3"/>
<path d="M84.5 73H93.5" stroke="#5C5F60" stroke-width="3"/>
<path d="M84.5 86H93.5" stroke="#5C5F60" stroke-width="3"/>
<path d="M84.5 99H93.5" stroke="#5C5F60" stroke-width="3"/>
<path d="M84.5 112H93.5" stroke="#5C5F60" stroke-width="3"/>
<path d="M84.5 125H93.5" stroke="#5C5F60" stroke-width="3"/>
<path d="M84.5 138H93.5" stroke="#5C5F60" stroke-width="3"/>
<path d="M108 73H152" stroke="#5C5F60" stroke-width="3"/>
<path d="M176 73H207" stroke="#5C5F60" stroke-width="3"/>
<path d="M158 73H171" stroke="#5C5F60" stroke-width="3"/>
<path d="M108 138H152" stroke="#5C5F60" stroke-width="3"/>
<path d="M176 138H207" stroke="#5C5F60" stroke-width="3"/>
<path d="M158 73H171" stroke="#5C5F60" stroke-width="3"/>
<path d="M158 138H171" stroke="#5C5F60" stroke-width="3"/>
<path d="M108 99H139" stroke="#5C5F60" stroke-width="3"/>
<path d="M165 99H176" stroke="#5C5F60" stroke-width="3"/>
<path d="M145 99H158" stroke="#5C5F60" stroke-width="3"/>
<path d="M108 86H125" stroke="#5C5F60" stroke-width="3"/>
<path d="M152 86H183" stroke="#5C5F60" stroke-width="3"/>
<path d="M132 86H145" stroke="#5C5F60" stroke-width="3"/>
<path d="M189 86H214" stroke="#5C5F60" stroke-width="3"/>
<path d="M108 125H125" stroke="#5C5F60" stroke-width="3"/>
<path d="M152 125H183" stroke="#5C5F60" stroke-width="3"/>
<path d="M132 125H145" stroke="#5C5F60" stroke-width="3"/>
<path d="M189 125H214" stroke="#5C5F60" stroke-width="3"/>
<path d="M182 99H212" stroke="#5C5F60" stroke-width="3"/>
<path d="M108 112H139" stroke="#5C5F60" stroke-width="3"/>
<path d="M165 112H176" stroke="#5C5F60" stroke-width="3"/>
<path d="M145 112H158" stroke="#5C5F60" stroke-width="3"/>
<path d="M182 112H212" stroke="#5C5F60" stroke-width="3"/>
<circle cx="168" cy="204" r="4.5" stroke="#5C5F60" stroke-width="3"/>
<path d="M135 249.5H200C203.628 249.5 206.655 252.077 207.35 255.5H127.65C128.345 252.077 131.372 249.5 135 249.5Z" fill="white" stroke="#5C5F60" stroke-width="3"/>
<rect x="1.5" y="153.5" width="54" height="102" rx="3.5" fill="white" stroke="#5C5F60" stroke-width="3"/>
<path d="M2 238.5H55.5" stroke="#5C5F60" stroke-width="3"/>
<path d="M2 166H55.5" stroke="#5C5F60" stroke-width="3"/>
<circle cx="29" cy="247" r="4" fill="#5C5F60"/>
<circle cx="17.5" cy="183.5" r="6.5" fill="#5C5F60"/>
<path d="M22 211H34" stroke="#5C5F60" stroke-width="2"/>
<path d="M12 196H18" stroke="#5C5F60" stroke-width="2"/>
<path d="M12 203H21" stroke="#5C5F60" stroke-width="2"/>
<path d="M12 211H18" stroke="#5C5F60" stroke-width="2"/>
<path d="M21 196H27" stroke="#5C5F60" stroke-width="2"/>
<path d="M24 203H40" stroke="#5C5F60" stroke-width="2"/>
<path d="M12 220H19" stroke="#5C5F60" stroke-width="2"/>
<path d="M23 220H38" stroke="#5C5F60" stroke-width="2"/>
<path d="M13 160L44 160" stroke="#5C5F60"/>
<path d="M24 162L33 162" stroke="#5C5F60"/>
<circle cx="321.5" cy="40.5" r="39" fill="white" stroke="#5C5F60" stroke-width="3"/>
<path d="M300.641 41.6797L311.645 46.127V49.5723L297.266 42.9102V40.3438L311.645 33.6992V37.1445L300.641 41.6797ZM317.428 55.1973H314.633L325.32 27.4062H328.098L317.428 55.1973ZM343.127 41.5742L331.508 37.0215V33.6816L346.52 40.3262V42.8926L331.508 49.5547V46.1797L343.127 41.5742Z" fill="#5C5F60"/>
<rect x="270.5" y="117.5" width="200" height="125" rx="8.5" fill="white" stroke="#5C5F60" stroke-width="3"/>
<rect x="278.5" y="125.5" width="184" height="103" rx="2.5" fill="white" stroke="#5C5F60" stroke-width="3"/>
<path d="M262.5 240.5H479.5V247C479.5 251.694 475.694 255.5 471 255.5H271C266.306 255.5 262.5 251.694 262.5 247V240.5Z" fill="white" stroke="#5C5F60" stroke-width="3"/>
<path d="M352.5 240.5C367.961 251.737 374.87 251.309 388.5 240.5" stroke="#5C5F60" stroke-width="3"/>
<path d="M295 144H302" stroke="#5C5F60" stroke-width="3"/>
<path d="M295 153H302" stroke="#5C5F60" stroke-width="3"/>
<path d="M295 162H302" stroke="#5C5F60" stroke-width="3"/>
<path d="M295 170H302" stroke="#5C5F60" stroke-width="3"/>
<path d="M295 179H302" stroke="#5C5F60" stroke-width="3"/>
<path d="M295 188H302" stroke="#5C5F60" stroke-width="3"/>
<path d="M311 144H341" stroke="#5C5F60" stroke-width="3"/>
<path d="M357 144H378" stroke="#5C5F60" stroke-width="3"/>
<path d="M311 188H341" stroke="#5C5F60" stroke-width="3"/>
<path d="M357 188H378" stroke="#5C5F60" stroke-width="3"/>
<path d="M345 144H354" stroke="#5C5F60" stroke-width="3"/>
<path d="M345 188H354" stroke="#5C5F60" stroke-width="3"/>
<path d="M311 162H332" stroke="#5C5F60" stroke-width="3"/>
<path d="M350 162H357" stroke="#5C5F60" stroke-width="3"/>
<path d="M336 162H345" stroke="#5C5F60" stroke-width="3"/>
<path d="M311 153H323" stroke="#5C5F60" stroke-width="3"/>
<path d="M341 153H362" stroke="#5C5F60" stroke-width="3"/>
<path d="M328 153H336" stroke="#5C5F60" stroke-width="3"/>
<path d="M366 153H383" stroke="#5C5F60" stroke-width="3"/>
<path d="M311 179H323" stroke="#5C5F60" stroke-width="3"/>
<path d="M341 179H362" stroke="#5C5F60" stroke-width="3"/>
<path d="M328 179H336" stroke="#5C5F60" stroke-width="3"/>
<path d="M366 179H383" stroke="#5C5F60" stroke-width="3"/>
<path d="M362 162H382" stroke="#5C5F60" stroke-width="3"/>
<path d="M311 170H332" stroke="#5C5F60" stroke-width="3"/>
<path d="M350 170H357" stroke="#5C5F60" stroke-width="3"/>
<path d="M336 170H345" stroke="#5C5F60" stroke-width="3"/>
<path d="M362 170H382" stroke="#5C5F60" stroke-width="3"/>
<circle cx="498.5" cy="121.5" r="39" fill="white" stroke="#5C5F60" stroke-width="3"/>
<path d="M492.109 140.434C490.035 139.848 488.471 138.881 487.416 137.533C486.373 136.197 485.852 134.428 485.852 132.225V128.727C485.852 125.879 484.609 124.455 482.125 124.455V121.906C484.609 121.906 485.852 120.488 485.852 117.652V113.996C485.875 111.852 486.396 110.123 487.416 108.811C488.447 107.486 490.012 106.525 492.109 105.928L492.777 107.949C490.328 108.734 489.104 110.779 489.104 114.084V117.635C489.104 120.295 488.125 122.146 486.168 123.189C488.125 124.244 489.104 126.113 489.104 128.797V132.418C489.139 135.641 490.363 137.639 492.777 138.412L492.109 140.434ZM502.463 138.412C504.842 137.65 506.072 135.711 506.154 132.594V128.727C506.154 126.02 507.215 124.174 509.336 123.189C507.215 122.229 506.154 120.383 506.154 117.652V114.084C506.154 110.779 504.93 108.734 502.48 107.949L503.148 105.928C505.223 106.514 506.781 107.469 507.824 108.793C508.867 110.105 509.395 111.846 509.406 114.014V117.705C509.406 120.506 510.648 121.906 513.133 121.906V124.455C510.648 124.455 509.406 125.879 509.406 128.727V132.277C509.406 134.48 508.873 136.244 507.807 137.568C506.752 138.893 505.199 139.848 503.148 140.434L502.463 138.412Z" fill="#5C5F60"/>
<path d="M532 257H499C499 247 502 241 515 241C528 241 532 246 532 257Z" fill="white" stroke="#5C5F60" stroke-width="3"/>
<path d="M516 242V246.5" stroke="#5C5F60" stroke-width="3"/>
</svg>
