<svg width="280" height="63" viewBox="0 0 280 63" fill="none" xmlns="http://www.w3.org/2000/svg">
<path d="M41.6669 0H8.93007V53.1166H41.6669V0Z" fill="#F08100"/>
<path d="M19.535 4.39557C19.535 4.39557 14.0788 -1.21426 6.40949 2.48976C-1.0293 6.23989 -0.0917628 14.1859 0.200256 15.5076C0.507643 16.8294 1.87552 21.5171 7.91569 24.3911C12.0654 26.4506 19.6886 24.7907 22.6857 18.8274C25.6981 12.8795 22.532 7.22353 19.535 4.39557ZM21.5791 17.8899C20.6723 20.4412 16.0154 25.2057 9.80613 23.9915C3.59689 22.7927 2.04458 18.4893 1.53739 16.6296C1.06094 14.7853 -0.245456 9.32914 5.56417 4.62611C11.7273 0.168983 17.7828 3.91911 17.7828 3.91911C24.9911 8.72973 22.5935 15.7843 21.5791 17.8899Z" fill="#7E126E"/>
<path d="M18.29 5.84018C18.29 5.84018 13.7253 1.15252 7.3316 4.25713C1.107 7.39249 1.89084 14.0321 2.13675 15.1387C2.38266 16.2453 3.53536 20.1645 8.57652 22.5621C12.05 24.2835 18.4129 22.9002 20.9181 17.9205C23.4387 12.9408 20.7952 8.20707 18.29 5.84018ZM19.996 17.1213C19.2429 19.2577 15.3544 23.223 10.1596 22.224C4.96471 21.2249 3.67368 17.6285 3.25871 16.0762C2.84374 14.5239 1.75251 9.97455 6.60924 6.03998C11.758 2.32059 16.8145 5.45595 16.8145 5.45595C22.8393 9.46736 20.8413 15.3692 19.996 17.1213Z" fill="#7E126E"/>
<path d="M16.5072 7.93046C16.5072 7.93046 13.2336 4.56456 8.62274 6.79312C4.16561 9.03705 4.71891 13.8016 4.90335 14.6008C5.08778 15.4 5.91773 18.2126 9.52953 19.934C12.0194 21.1635 16.5995 20.1799 18.3977 16.5988C20.1959 13.0177 18.3055 9.62109 16.5072 7.93046ZM17.7368 16.0301C17.1989 17.5671 14.4016 20.4258 10.6669 19.7034C6.93211 18.981 6.00994 16.399 5.70255 15.277C5.39517 14.1704 4.6267 10.8814 8.11555 8.05341C11.8196 5.37914 15.4467 7.63844 15.4467 7.63844C19.7809 10.5279 18.3362 14.7698 17.7368 16.0301Z" fill="#7E126E"/>
<path d="M14.4938 10.2667C14.4938 10.2667 12.6648 8.3916 10.0982 9.62116C7.60831 10.8814 7.9157 13.5404 8.00792 13.9861C8.1155 14.4318 8.57659 15.9995 10.59 16.9677C11.9886 17.6593 14.5399 17.1061 15.5389 15.108C16.5533 13.11 15.5082 11.2196 14.4938 10.2667ZM14.9241 14.6777C14.6475 15.4615 13.2028 16.937 11.2816 16.5681C9.36042 16.1993 8.88397 14.8621 8.73028 14.2935C8.57658 13.7248 8.17698 12.0342 9.9752 10.5741C11.881 9.19081 13.7561 10.3589 13.7561 10.3589C15.9846 11.8343 15.2469 14.0322 14.9241 14.6777Z" fill="#7E126E"/>
<path d="M41.421 23.5612C41.421 23.5612 34.3203 16.2608 24.3456 21.0868C14.6628 25.9742 15.877 36.3025 16.2613 38.0392C16.6455 39.7606 18.4437 45.8622 26.2975 49.6124C31.7075 52.2866 41.6208 50.1349 45.5246 42.3734C49.4438 34.6118 45.3401 27.2499 41.421 23.5612ZM44.0952 41.1284C42.9272 44.4482 36.8562 50.6421 28.7719 49.0898C20.6876 47.5221 18.6743 41.9123 18.0134 39.4993C17.3679 37.0863 15.6619 29.9856 23.2236 23.8533C31.2464 18.0436 39.1309 22.9465 39.1309 22.9465C48.537 29.2018 45.4016 38.3927 44.0952 41.1284Z" fill="#7E126E"/>
<path d="M39.3308 26.005C39.3308 26.005 33.7363 20.2568 25.8826 24.0531C18.2593 27.9108 19.2122 36.0412 19.5196 37.3937C19.827 38.7616 21.241 43.5568 27.4195 46.5078C31.6768 48.6134 39.4845 46.9227 42.5583 40.8057C45.6322 34.7194 42.4046 28.9098 39.3308 26.005ZM41.4364 39.8528C40.5142 42.4656 35.7343 47.3531 29.3714 46.1082C23.0085 44.8786 21.4101 40.4676 20.9029 38.5618C20.3957 36.656 19.0585 31.0615 25.0065 26.2355C31.3233 21.6708 37.5326 25.5132 37.5326 25.5132C44.9252 30.4467 42.4508 37.6857 41.4364 39.8528Z" fill="#7E126E"/>
<path d="M36.5644 29.2172C36.5644 29.2172 32.9526 25.5131 27.8807 27.9569C22.9625 30.4467 23.5772 35.6877 23.777 36.5791C23.9768 37.4552 24.8836 40.5598 28.8797 42.4656C31.6308 43.8181 36.6719 42.7269 38.6546 38.7923C40.6526 34.8424 38.5624 31.0922 36.5644 29.2172ZM37.5326 37.9623C36.9793 39.5454 34.0899 42.4963 30.2322 41.7586C26.3745 41.0055 25.4216 38.3466 25.0988 37.1939C24.7914 36.0412 23.9768 32.6599 27.5886 29.7397C31.4156 26.9732 35.1657 29.3094 35.1657 29.3094C39.6382 32.2757 38.1474 36.656 37.5326 37.9623Z" fill="#7E126E"/>
<path d="M79.5831 40.3445C79.3679 36.3638 79.122 31.5686 79.1527 28.0183H79.0298C78.0615 31.3688 76.8627 34.9191 75.4333 38.869L70.3768 52.7169H67.5796L62.9534 39.115C61.6009 35.0882 60.4482 31.3995 59.649 28.0183H59.5568C59.4645 31.584 59.2647 36.3638 59.0035 40.6519L58.235 52.9013H54.7154L56.7134 24.345H61.4164L66.2885 38.1621C67.472 41.6816 68.4556 44.817 69.1626 47.7833H69.2856C70.0079 44.9092 71.0223 41.7585 72.298 38.1621L77.3852 24.345H82.0883L83.8711 52.9013H80.2747L79.5831 40.3445Z" fill="white"/>
<path d="M101.054 52.886L100.762 50.3039H100.639C99.5018 51.9177 97.2886 53.3624 94.3684 53.3624C90.2187 53.3624 88.0977 50.4422 88.0977 47.4759C88.0977 42.5116 92.5087 39.8066 100.424 39.8527V39.4224C100.424 37.7317 99.9629 34.6732 95.767 34.6732C93.8612 34.6732 91.8632 35.2726 90.4339 36.1948L89.5885 33.7357C91.2792 32.6291 93.7383 31.9067 96.3203 31.9067C102.591 31.9067 104.113 36.1794 104.113 40.2984V47.9678C104.113 49.7506 104.205 51.4873 104.451 52.886H101.054V52.886ZM100.516 42.4194C96.4433 42.3272 91.8325 43.0495 91.8325 47.0456C91.8325 49.4586 93.4463 50.6113 95.3521 50.6113C98.0263 50.6113 99.717 48.9207 100.316 47.1839C100.439 46.7997 100.532 46.3847 100.532 46.0005V42.4194H100.516Z" fill="white"/>
<path d="M110.122 37.9316C110.122 35.8106 110.076 34.0738 109.953 32.3832H113.257L113.473 35.7798H113.565C114.579 33.8279 116.961 31.9221 120.343 31.9221C123.186 31.9221 127.582 33.6128 127.582 40.6519V52.9013H123.847V41.0823C123.847 37.7779 122.617 35.0267 119.098 35.0267C116.639 35.0267 114.733 36.7635 114.103 38.8383C113.934 39.2994 113.841 39.9449 113.841 40.5751V52.9013H110.107V37.9316H110.122Z" fill="white"/>
<path d="M151.358 22.7927V47.5836C151.358 49.4125 151.404 51.4874 151.527 52.886H148.177L148.008 49.3357H147.915C146.778 51.6257 144.273 53.3624 140.922 53.3624C135.958 53.3624 132.146 49.1666 132.146 42.942C132.1 36.118 136.342 31.9221 141.337 31.9221C144.473 31.9221 146.594 33.413 147.531 35.0575H147.623V22.8081H151.358V22.7927ZM147.639 40.7288C147.639 40.2677 147.593 39.6222 147.47 39.1611C146.916 36.7942 144.888 34.8423 142.09 34.8423C138.233 34.8423 135.943 38.239 135.943 42.7729C135.943 46.9227 137.971 50.3654 141.998 50.3654C144.503 50.3654 146.793 48.7055 147.47 45.9083C147.593 45.4011 147.639 44.8939 147.639 44.2945V40.7288Z" fill="white"/>
<path d="M168.91 52.886L168.618 50.3039H168.495C167.358 51.9177 165.145 53.3624 162.224 53.3624C158.075 53.3624 155.954 50.4422 155.954 47.4759C155.954 42.5116 160.365 39.8066 168.28 39.8527V39.4224C168.28 37.7317 167.819 34.6732 163.623 34.6732C161.717 34.6732 159.719 35.2726 158.29 36.1948L157.445 33.7357C159.135 32.6291 161.594 31.9067 164.176 31.9067C170.447 31.9067 171.969 36.1794 171.969 40.2984V47.9678C171.969 49.7506 172.061 51.4873 172.307 52.886H168.91V52.886ZM168.357 42.4194C164.284 42.3272 159.673 43.0495 159.673 47.0456C159.673 49.4586 161.287 50.6113 163.193 50.6113C165.867 50.6113 167.558 48.9207 168.157 47.1839C168.28 46.7997 168.372 46.3847 168.372 46.0005V42.4194H168.357Z" fill="white"/>
<path d="M177.978 37.9316C177.978 35.8106 177.932 34.0738 177.809 32.3832H181.113L181.329 35.7798H181.421C182.435 33.8279 184.817 31.9221 188.199 31.9221C191.042 31.9221 195.438 33.6128 195.438 40.6519V52.9013H191.703V41.0823C191.703 37.7779 190.473 35.0267 186.954 35.0267C184.495 35.0267 182.589 36.7635 181.959 38.8383C181.79 39.2994 181.697 39.9449 181.697 40.5751V52.9013H177.978V37.9316Z" fill="white"/>
<path d="M205.643 26.6197C205.689 27.8954 204.751 28.9098 203.276 28.9098C201.97 28.9098 201.032 27.8954 201.032 26.6197C201.032 25.3133 202 24.2836 203.368 24.2836C204.751 24.2836 205.643 25.2979 205.643 26.6197ZM201.493 52.886V32.3832H205.228V52.9014H201.493V52.886Z" fill="white"/>
<path d="M220.52 24.7139C222.134 24.3758 224.67 24.1145 227.252 24.1145C230.941 24.1145 233.308 24.7446 235.091 26.1894C236.581 27.296 237.458 28.9866 237.458 31.2305C237.458 33.9817 235.629 36.3946 232.632 37.5012V37.5935C235.337 38.2697 238.518 40.5136 238.518 44.7556C238.518 47.2147 237.55 49.0744 236.105 50.473C234.107 52.302 230.895 53.1473 226.238 53.1473C223.702 53.1473 221.75 52.9782 220.52 52.8092V24.7139V24.7139ZM224.209 36.41H227.56C231.463 36.41 233.753 34.3813 233.753 31.6148C233.753 28.2642 231.218 26.9578 227.483 26.9578C225.792 26.9578 224.809 27.0808 224.224 27.2191V36.41H224.209ZM224.209 50.0888C224.931 50.2117 225.992 50.2578 227.298 50.2578C231.11 50.2578 234.63 48.8592 234.63 44.7095C234.63 40.8057 231.279 39.2072 227.252 39.2072H224.194V50.0888H224.209Z" fill="white"/>
<path d="M254.717 52.886L254.425 50.3039H254.302C253.165 51.9177 250.952 53.3624 248.032 53.3624C243.882 53.3624 241.761 50.4422 241.761 47.4759C241.761 42.5116 246.172 39.8066 254.087 39.8527V39.4224C254.087 37.7317 253.626 34.6732 249.43 34.6732C247.525 34.6732 245.527 35.2726 244.097 36.1948L243.252 33.7357C244.942 32.6291 247.402 31.9067 249.984 31.9067C256.254 31.9067 257.776 36.1794 257.776 40.2984V47.9678C257.776 49.7506 257.868 51.4873 258.114 52.886H254.717V52.886ZM254.164 42.4194C250.091 42.3272 245.48 43.0495 245.48 47.0456C245.48 49.4586 247.094 50.6113 249 50.6113C251.674 50.6113 253.365 48.9207 253.964 47.1839C254.087 46.7997 254.18 46.3847 254.18 46.0005V42.4194H254.164Z" fill="white"/>
<path d="M264.8 32.3832L269.287 44.5096C269.749 45.8621 270.256 47.4759 270.594 48.7055H270.686C271.07 47.4759 271.485 45.9082 271.993 44.4328L276.065 32.3985H280L274.406 47.0148C271.731 54.054 269.918 57.6505 267.366 59.8483C265.537 61.4621 263.724 62.0922 262.786 62.2613L261.849 59.1259C262.786 58.8339 264.016 58.2345 265.107 57.297C266.121 56.4978 267.397 55.053 268.242 53.1472C268.411 52.763 268.534 52.471 268.534 52.2558C268.534 52.0406 268.442 51.7486 268.273 51.2875L260.681 32.3832H264.8Z" fill="white"/>
<path d="M41.1905 8.99109C40.1146 12.0496 34.5355 17.7363 27.0967 16.3069C19.6733 14.8776 17.8136 9.71346 17.2142 7.50026C16.8607 6.1785 16.1537 3.30442 17.1374 0H15.708C15.0932 2.90482 15.416 5.41003 15.5851 6.14776C15.9386 7.7308 17.5985 13.3406 24.8221 16.7834C29.4483 19.0734 37.6401 17.5211 41.6516 11.5732V7.8845C41.4979 8.33021 41.3288 8.69908 41.1905 8.99109Z" fill="white"/>
<path d="M39.3001 8.0843C38.3933 10.6356 33.7364 15.4001 27.5272 14.2013C21.3179 13.0025 19.7656 8.68371 19.2584 6.83938C18.9357 5.65594 18.2902 2.99703 19.3814 0.0153694H18.1365C17.4448 2.67427 17.7522 5.04116 17.9059 5.71741C18.2133 7.03918 19.5812 11.7268 25.6214 14.6009C29.7865 16.6604 37.3943 15.0005 40.3913 9.0372C42.0205 5.80963 41.8361 2.6589 40.8524 0H40.0993C41.1137 3.45811 39.9303 6.76253 39.3001 8.0843Z" fill="white"/>
<path d="M36.5795 6.77791C35.934 8.60687 32.5835 12.0342 28.1264 11.1736C23.6692 10.3129 22.5473 7.20826 22.1784 5.88649C21.9171 4.90285 21.3485 2.53596 22.701 0.0153809H21.6866C20.7952 2.29005 21.0872 4.51861 21.2101 5.07191C21.4253 6.02481 22.4089 9.39071 26.7585 11.4656C29.7401 12.941 35.2116 11.7576 37.3787 7.46953C38.762 4.73378 38.3316 2.10562 37.2865 0.0153809H36.7947C38.1165 2.81261 37.1021 5.70206 36.5795 6.77791Z" fill="white"/>
<path d="M33.229 5.14875C32.8909 6.10165 31.1695 7.85376 28.8641 7.40805C26.5587 6.96233 25.9901 5.37929 25.8056 4.68766C25.6212 3.99604 25.1447 1.98265 27.2965 0.230541C27.4194 0.138325 27.5424 0.0614776 27.65 0H26.1899C24.5607 1.62916 24.8374 3.88846 24.9449 4.33417C25.0679 4.8721 25.6212 6.74716 28.0496 7.89987C29.7248 8.72981 32.7833 8.05356 33.9821 5.67131C35.1502 3.3659 34.0129 1.16807 32.8448 0H31.8612C34.474 1.78285 33.5979 4.38028 33.229 5.14875Z" fill="white"/>
<path d="M28.1726 35.3343C28.1726 35.3343 20.3342 27.2807 9.31435 32.5985C9.17603 32.66 9.05307 32.7369 8.91475 32.7983V35.0884C17.4755 29.5861 25.6366 34.6427 25.6366 34.6427C34.5816 40.606 33.2291 48.9669 31.769 53.1013H33.8593C35.9649 45.6933 31.9842 38.9307 28.1726 35.3343Z" fill="white"/>
<path d="M26.2667 37.532C26.2667 37.532 19.7809 30.8771 10.6822 35.2727C10.052 35.5955 9.468 35.9336 8.93007 36.3024V38.4234C9.16061 38.2083 9.40652 37.9931 9.6678 37.7933C16.9836 32.5062 24.1765 36.9633 24.1765 36.9633C32.2915 42.3734 30.1552 50.1964 28.8949 53.1166H30.6778C33.0139 46.6307 29.5712 40.6366 26.2667 37.532Z" fill="white"/>
<path d="M23.7308 40.529C23.7308 40.529 19.0892 35.7645 12.5726 38.9152C10.9127 39.7452 9.74465 40.8364 8.93007 41.9891V44.9861C9.45263 43.6644 10.4055 42.2811 12.0347 40.9747C17.1066 37.3168 22.0863 40.3907 22.0863 40.3907C28.0189 44.3406 26.0362 50.1503 25.2216 51.8716C25.0987 52.2405 24.8681 52.6708 24.5454 53.1165H26.2667C26.3282 53.0243 26.3743 52.9167 26.4358 52.8092C28.9718 47.7373 26.2821 42.9266 23.7308 40.529Z" fill="white"/>
<path d="M12.1729 49.8122C11.9424 48.9362 11.3276 46.3234 14.0633 44.0794C16.9835 41.9585 19.8422 43.7413 19.8422 43.7413C23.2542 46.0314 22.1169 49.3972 21.6405 50.3963C21.3484 51.2108 20.2572 52.5172 18.6742 53.1013H20.3955C21.1794 52.5941 21.871 51.8717 22.3321 50.9496C23.8075 48.014 22.2552 45.2168 20.7951 43.8335C20.7951 43.8335 18.1209 41.067 14.3707 42.896C10.7282 44.7403 11.1893 48.6595 11.3276 49.3204C11.4505 49.8891 11.9885 51.718 14.0787 53.1166H15.2622C13.0029 52.3635 12.3881 50.6114 12.1729 49.8122Z" fill="white"/>
</svg>
