<svg width="619" height="101" viewBox="0 0 619 101" fill="none" xmlns="http://www.w3.org/2000/svg">
<path d="M30.9501 98.8028V71.8231L27.2626 68.9381V97.4109C28.4659 97.9246 29.6952 98.3886 30.9501 98.8028Z" fill="#48C7E5"/>
<path d="M66.8831 97.7976V81.7868L66.8616 81.7629L63.9741 82.5627V98.8426C64.9588 98.528 65.9286 98.1797 66.8831 97.7976Z" fill="#48C7E5"/>
<path d="M61.4117 61.5687L55.8126 55.9695L47.3153 47.6082V52.5034L61.4224 65.1868L61.4117 61.5687Z" fill="#48C7E5"/>
<path d="M61.4116 67.5468L47.3049 55.7007V60.5425L61.4116 71.1861V67.5468Z" fill="#48C7E5"/>
<path d="M61.4116 74.0336L47.3049 64.1153V69.0398L61.4116 77.5291V74.0336Z" fill="#48C7E5"/>
<path d="M61.4116 80.0138L47.3049 72.103V77.1689L61.4116 83.5892V80.0138Z" fill="#48C7E5"/>
<path d="M61.4116 86.026L47.4006 80.3949L47.3049 80.3549V85.4634L61.4116 89.5108V86.026Z" fill="#48C7E5"/>
<path d="M61.4116 91.9611C58.5294 91.2945 49.9924 89.3161 47.3049 88.6869V93.8968C52.4934 94.582 59.6519 95.3232 61.4116 95.4965V91.9611Z" fill="#48C7E5"/>
<path d="M50.2084 101C53.9856 101.003 57.7479 100.529 61.4065 99.5896V97.526L47.2994 96.5847V100.997L50.2084 101Z" fill="#48C7E5"/>
<path d="M55.8019 45.7529V43.1267L47.3049 32.7043V36.2423H47.3312L55.8019 45.7529Z" fill="#48C7E5"/>
<path d="M47.3049 38.5889V42.0336L55.8019 51.3655V48.19L47.3049 38.5889Z" fill="#48C7E5"/>
<path d="M50.2055 0H44.873C32.972 0 21.5584 4.72762 13.1431 13.1429C4.72781 21.5582 1.98083e-05 32.9718 1.98083e-05 44.8728V56.1296C-0.00614501 62.6832 1.42675 69.1582 4.19693 75.0976C6.96712 81.0369 11.0072 86.2958 16.0323 90.5028V79.8379L27.2518 68.9355L30.942 71.8204V53.7034L35.589 49.536V39.7563L44.8889 29.7738V19.5595H48.0883V29.9978L57.0657 40.8814V52.7462L63.9604 60.4409V82.5707L66.848 81.7708L66.8668 81.7948L75.3427 91.0706V93.3023C81.4216 89.1952 86.3993 83.6588 89.8394 77.179C93.2794 70.6991 95.0766 63.4739 95.0729 56.1376V44.8808C95.074 38.9878 93.9143 33.1522 91.66 27.7074C89.4058 22.2627 86.1011 17.3152 81.9347 13.1476C77.7684 8.98002 72.8219 5.67395 67.3778 3.41807C61.9337 1.16219 56.0985 0.000700203 50.2055 0Z" fill="#004D73"/>
<path d="M121.941 28.3502H139.615L147.55 59.0546H147.678L155.613 28.3502H173.287V74.4068H161.998V39.4471H161.87L152.195 74.4095H143.036L133.36 39.4471H133.232V74.4095H121.943L121.941 28.3502Z" fill="#48C7E5"/>
<path d="M194.126 28.3502H206.319L223.543 74.4068H211.03L208.19 66.1415H192.129L189.226 74.4068H176.905L194.126 28.3502ZM194.899 57.2495H205.348L200.253 41.1242H200.122L194.899 57.2495Z" fill="#48C7E5"/>
<path d="M226.897 28.3502H239.218L255.215 56.7324H255.343V28.3502H266.632V74.4068H254.311L238.314 45.7021H238.183V74.4068H226.894L226.897 28.3502Z" fill="#48C7E5"/>
<path d="M287.343 28.3502H299.536L316.76 74.4068H304.247L301.408 66.1415H285.346L282.443 74.4068H270.122L287.343 28.3502ZM288.117 57.2495H298.565L293.47 41.1242H293.342L288.117 57.2495Z" fill="#48C7E5"/>
<path d="M362.752 74.4068H355.021L354.311 69.3756C352.791 71.312 350.838 72.8638 348.608 73.9059C346.377 74.948 343.934 75.4511 341.473 75.3746C327.54 75.3746 318.509 64.731 318.509 51.3785C318.509 38.0259 327.54 27.3823 341.473 27.3823C351.021 27.3823 361.203 32.4775 362.31 44.025H350.312C349.925 40.0896 346.046 37.7034 341.217 37.7034C333.485 37.7034 330.51 44.5396 330.51 51.3785C330.51 58.2174 333.477 65.0537 341.217 65.0537C347.153 65.0537 351.152 62.2807 351.797 58.0867H343.412V49.1841H362.763L362.752 74.4068Z" fill="#48C7E5"/>
<path d="M370.429 28.3502H407.132V37.9486H382.427V46.0114H405.001V55.3005H382.427V64.0779H407.777V74.3988H370.429V28.3502Z" fill="#48C7E5"/>
<path d="M414.619 28.3502H434.421C448.552 28.3502 456.999 36.9302 456.999 51.1839C456.999 66.2775 448.419 74.4068 434.421 74.4068H414.619V28.3502ZM426.617 64.0779H432.293C441.388 63.8832 445.001 60.345 445.001 51.1118C445.001 42.7265 440.484 38.6632 432.293 38.6632H426.617V64.0779Z" fill="#48C7E5"/>
<path d="M470.807 27.3823H495.542C508.582 27.3823 513.152 36.9275 513.152 43.7823C513.152 55.4125 505.356 60.8463 494.331 60.8463H485.594V75.364H470.807V27.3823ZM485.594 49.4294H491.308C495.139 49.4294 499.173 49.1629 499.173 44.321C499.173 39.951 495.811 39.6844 492.182 39.6844H485.594V49.4294Z" fill="#004D73"/>
<path d="M515.587 27.3823H536.626L543.481 55.6125H543.617L550.472 27.3823H571.511V75.3746H557.532V44.5902H557.396L549.061 75.3746H538.039L529.704 44.5902H529.571V75.3746H515.589L515.587 27.3823Z" fill="#004D73"/>
<path d="M596.944 27.3825C599.958 27.3494 602.947 27.9347 605.727 29.1023C608.365 30.2239 610.725 31.9124 612.638 34.0481C614.613 36.2707 616.128 38.8636 617.093 41.6763C618.162 44.7988 618.688 48.0811 618.65 51.3812C618.689 54.7111 618.163 58.0235 617.093 61.177C616.141 63.989 614.62 66.5748 612.624 68.7731C610.666 70.8933 608.268 72.5604 605.599 73.6578C602.707 74.8334 599.609 75.418 596.488 75.3774C592.476 75.4448 588.522 74.4041 585.063 72.3699C581.701 70.3543 578.993 67.41 577.265 63.8913C575.367 60.0202 574.417 55.7531 574.494 51.4426C574.402 47.0612 575.351 42.7206 577.265 38.778C579 35.2491 581.742 32.3144 585.146 30.3448C588.744 28.3217 592.818 27.2988 596.944 27.3825ZM596.83 38.7913C595.118 38.742 593.439 39.2657 592.06 40.2792C590.659 41.3942 589.62 42.8989 589.073 44.6037C588.347 46.8287 588.004 49.1613 588.06 51.5013C588.043 53.402 588.292 55.2957 588.801 57.1271C589.205 58.6685 589.903 60.1171 590.857 61.393C591.561 62.2082 592.446 62.8474 593.441 63.2594C594.493 63.7067 595.625 63.9335 596.768 63.9259C598.421 63.9783 600.039 63.4459 601.338 62.4223C602.683 61.2553 603.657 59.7191 604.138 58.0042C604.822 55.6594 605.14 53.2232 605.082 50.7814C605.129 48.6072 604.795 46.4414 604.095 44.3824C603.559 42.7572 602.573 41.317 601.253 40.2284C599.986 39.2553 598.423 38.7478 596.827 38.7913H596.83Z" fill="#004D73"/>
</svg>
