<svg width="219" height="53" viewBox="0 0 219 53" fill="none" xmlns="http://www.w3.org/2000/svg">
<path d="M13.847 23.7418C16.4542 23.7418 18.9569 24.2138 21.2836 25.0732L23.1295 19.6872C21.5887 18.7832 20.8428 16.8884 21.444 15.1317C22.132 13.1255 24.314 12.0568 26.3201 12.7448C28.3262 13.4328 29.395 15.6148 28.707 17.621C28.1036 19.3777 26.3557 20.4153 24.5812 20.1837L22.7064 25.6521C30.6908 29.2592 36.2817 37.5909 36.2817 47.2965C36.2817 49.0288 36.0991 50.7165 35.7607 52.3419H51.0082L38.1988 34.024C44.6491 32.6524 49.4897 26.9235 49.4897 20.0657V18.6162C49.4941 8.334 41.1579 0 30.8779 0H0V28.7693C3.81409 25.6232 8.619 23.7418 13.847 23.7418Z" fill="#FF4C4E"/>
<path d="M8.42987 34.3399C8.42987 35.9631 7.11397 37.279 5.49081 37.279C3.86765 37.279 2.55176 35.9631 2.55176 34.3399C2.55176 32.7168 3.86765 31.4009 5.49081 31.4009C7.11397 31.4009 8.42987 32.7168 8.42987 34.3399Z" fill="#FF4C4E"/>
<path d="M30.8664 42.1131C30.8664 43.7363 29.5505 45.0522 27.9273 45.0522C26.3042 45.0522 24.9883 43.7363 24.9883 42.1131C24.9883 40.49 26.3042 39.1741 27.9273 39.1741C29.5505 39.1741 30.8664 40.49 30.8664 42.1131Z" fill="#FF4C4E"/>
<path d="M77.2598 33.67V0H103.074C105.256 0 107.096 0.779295 108.592 2.33788C110.15 3.8653 110.93 5.70444 110.93 7.85529V14.6352L108.732 16.8328L110.93 19.0304V33.6678H77.2598V33.67ZM101.204 9.7256H86.9876V11.97H101.204V9.7256ZM101.204 21.6978H86.9876V23.9422H101.204V21.6978Z" fill="#FF4C4E"/>
<path d="M121.031 33.6702C118.818 33.6702 116.963 32.9065 115.467 31.3791C113.939 29.8205 113.176 27.9658 113.176 25.8149V7.85773C113.176 5.67571 113.939 3.83657 115.467 2.34032C116.994 0.781736 118.849 0.00244141 121.031 0.00244141H138.988C141.17 0.00244141 143.009 0.781736 144.506 2.34032C146.064 3.86774 146.844 5.70688 146.844 7.85773V25.8149C146.844 28.0303 146.064 29.8984 144.506 31.4258C142.947 32.9221 141.108 33.6702 138.988 33.6702H121.031ZM137.118 9.72581H122.901V23.9424H137.118V9.72581Z" fill="#FF4C4E"/>
<path d="M192.86 33.6702C190.647 33.6702 188.792 32.9065 187.296 31.3791C185.769 29.8205 185.005 27.9658 185.005 25.8149V7.85773C185.005 5.67571 185.769 3.83657 187.296 2.34032C188.823 0.781736 190.678 0.00244141 192.86 0.00244141H210.817C212.997 0.00244141 214.838 0.781736 216.335 2.34032C217.893 3.86774 218.673 5.70688 218.673 7.85773V25.8149C218.673 28.0303 217.893 29.8984 216.335 31.4258C214.776 32.9221 212.937 33.6702 210.817 33.6702H192.86ZM208.947 9.72581H194.73V23.9424H208.947V9.72581Z" fill="#4913D5"/>
<path d="M72.6765 2.33788C71.1803 0.779295 69.3411 0 67.1591 0H49.2019C47.365 0 45.7641 0.558866 44.3926 1.66101C47.3494 4.02339 49.6673 7.13834 51.0722 10.7164V9.7256H65.2888V23.9422H52.1321C51.2882 27.5781 49.2888 30.8244 46.5078 33.2224C47.3383 33.5141 48.2334 33.67 49.2019 33.67H67.1591C69.2788 33.67 71.1179 32.9219 72.6765 31.4256C74.2351 29.8982 75.0144 28.0279 75.0144 25.8147V7.85752C75.0144 5.70444 74.2351 3.8653 72.6765 2.33788Z" fill="#FF4C4E"/>
<path d="M180.42 2.33788C178.923 0.779295 177.082 0 174.902 0H156.945C156.642 0 156.346 0.0178124 156.057 0.0489842V0H149.09V7.85752V14.0941V33.67H158.818V9.72782H161.062V33.67H170.79V9.72782H173.034V33.67H182.76V7.85752C182.758 5.70444 181.978 3.8653 180.42 2.33788Z" fill="#4913D5"/>
<path d="M79.0398 45.006V48.6677H77.8064V39.3143H81.2561C82.2797 39.3143 83.0805 39.5755 83.6587 40.098C84.2411 40.6205 84.5324 41.3122 84.5324 42.173C84.5324 43.0809 84.2476 43.7812 83.678 44.2737C83.1126 44.7619 82.3011 45.006 81.2432 45.006H79.0398ZM79.0398 43.9974H81.2561C81.9156 43.9974 82.421 43.8433 82.7722 43.5349C83.1233 43.2223 83.2989 42.7726 83.2989 42.1859C83.2989 41.6291 83.1233 41.1837 82.7722 40.8496C82.421 40.5156 81.9392 40.3421 81.3268 40.3293H79.0398V43.9974ZM89.2797 42.7833C89.0999 42.7533 88.905 42.7383 88.6951 42.7383C87.9157 42.7383 87.3868 43.0702 87.1084 43.734V48.6677H85.92V41.7169H87.0763L87.0956 42.5199C87.4853 41.8989 88.0378 41.5884 88.753 41.5884C88.9842 41.5884 89.1598 41.6184 89.2797 41.6783V42.7833ZM89.935 45.1281C89.935 44.4471 90.0678 43.8347 90.3333 43.2908C90.6031 42.7469 90.9757 42.3272 91.4511 42.0317C91.9307 41.7362 92.4768 41.5884 93.0892 41.5884C94.0357 41.5884 94.8001 41.916 95.3826 42.5713C95.9693 43.2265 96.2627 44.0981 96.2627 45.1859V45.2694C96.2627 45.9461 96.1321 46.5542 95.8708 47.0938C95.6139 47.6292 95.2434 48.0467 94.7595 48.3465C94.2798 48.6463 93.7273 48.7962 93.1021 48.7962C92.1599 48.7962 91.3954 48.4686 90.8087 47.8133C90.2262 47.1581 89.935 46.2908 89.935 45.2116V45.1281ZM91.1299 45.2694C91.1299 46.0403 91.3076 46.6591 91.6631 47.126C92.0228 47.5928 92.5025 47.8262 93.1021 47.8262C93.7059 47.8262 94.1856 47.5906 94.541 47.1195C94.8965 46.6441 95.0742 45.9803 95.0742 45.1281C95.0742 44.3657 94.8922 43.749 94.5282 43.2779C94.1684 42.8026 93.6888 42.5649 93.0892 42.5649C92.5025 42.5649 92.0292 42.7983 91.6695 43.2651C91.3097 43.7319 91.1299 44.4 91.1299 45.2694ZM103.625 45.2694C103.625 46.3272 103.383 47.1795 102.899 47.8262C102.415 48.4729 101.76 48.7962 100.933 48.7962C100.089 48.7962 99.4255 48.5285 98.9415 47.9932V51.3401H97.7531V41.7169H98.8387L98.8966 42.4878C99.3805 41.8882 100.053 41.5884 100.914 41.5884C101.749 41.5884 102.408 41.9032 102.892 42.5327C103.381 43.1623 103.625 44.0381 103.625 45.1602V45.2694ZM102.436 45.1345C102.436 44.3508 102.269 43.7319 101.935 43.2779C101.601 42.824 101.143 42.597 100.56 42.597C99.8409 42.597 99.3013 42.9161 98.9415 43.5542V46.8754C99.297 47.5093 99.8409 47.8262 100.573 47.8262C101.143 47.8262 101.595 47.6013 101.929 47.1516C102.267 46.6977 102.436 46.0253 102.436 45.1345ZM108.025 48.7962C107.083 48.7962 106.316 48.4879 105.725 47.8711C105.134 47.2501 104.839 46.4214 104.839 45.385V45.1666C104.839 44.4771 104.969 43.8625 105.231 43.3229C105.496 42.779 105.865 42.355 106.336 42.0509C106.811 41.7426 107.325 41.5884 107.877 41.5884C108.781 41.5884 109.483 41.8861 109.984 42.4814C110.486 43.0767 110.736 43.9289 110.736 45.0381V45.5328H106.027C106.044 46.218 106.244 46.7726 106.625 47.1966C107.01 47.6163 107.498 47.8262 108.089 47.8262C108.509 47.8262 108.865 47.7405 109.156 47.5692C109.447 47.3979 109.702 47.1709 109.92 46.8883L110.646 47.4536C110.064 48.3487 109.19 48.7962 108.025 48.7962ZM107.877 42.5649C107.398 42.5649 106.995 42.7405 106.67 43.0916C106.344 43.4385 106.143 43.9268 106.066 44.5563H109.548V44.4664C109.513 43.8625 109.351 43.3957 109.059 43.0659C108.768 42.7319 108.374 42.5649 107.877 42.5649ZM115.477 42.7833C115.297 42.7533 115.102 42.7383 114.892 42.7383C114.113 42.7383 113.584 43.0702 113.306 43.734V48.6677H112.117V41.7169H113.274L113.293 42.5199C113.683 41.8989 114.235 41.5884 114.95 41.5884C115.182 41.5884 115.357 41.6184 115.477 41.6783V42.7833ZM118.509 40.0338V41.7169H119.807V42.6355H118.509V46.9461C118.509 47.2245 118.567 47.4343 118.683 47.5756C118.798 47.7127 118.995 47.7812 119.274 47.7812C119.411 47.7812 119.599 47.7555 119.839 47.7041V48.6677C119.526 48.7534 119.222 48.7962 118.927 48.7962C118.396 48.7962 117.995 48.6356 117.725 48.3144C117.456 47.9932 117.321 47.5371 117.321 46.9461V42.6355H116.055V41.7169H117.321V40.0338H118.509ZM123.475 46.9268L125.094 41.7169H126.366L123.571 49.7405C123.139 50.8969 122.451 51.475 121.509 51.475L121.284 51.4558L120.841 51.3723V50.4086L121.162 50.4343C121.565 50.4343 121.878 50.353 122.1 50.1902C122.327 50.0275 122.514 49.7298 122.659 49.2973L122.923 48.5906L120.443 41.7169H121.74L123.475 46.9268ZM133.638 44.4985C132.58 44.1944 131.809 43.8218 131.325 43.3807C130.846 42.9353 130.606 42.3871 130.606 41.7362C130.606 40.9995 130.899 40.3914 131.486 39.9117C132.077 39.4278 132.843 39.1858 133.786 39.1858C134.428 39.1858 135 39.31 135.501 39.5584C136.006 39.8068 136.396 40.1494 136.67 40.5863C136.948 41.0231 137.088 41.5006 137.088 42.0188H135.848C135.848 41.4535 135.668 41.0102 135.308 40.689C134.948 40.3636 134.441 40.2008 133.786 40.2008C133.177 40.2008 132.702 40.3357 132.359 40.6055C132.021 40.8711 131.852 41.2415 131.852 41.7169C131.852 42.0981 132.013 42.4214 132.334 42.6869C132.659 42.9482 133.21 43.188 133.985 43.4064C134.764 43.6248 135.372 43.8668 135.809 44.1323C136.25 44.3936 136.576 44.6998 136.786 45.051C137 45.4022 137.107 45.8154 137.107 46.2908C137.107 47.0489 136.811 47.657 136.22 48.1153C135.629 48.5692 134.839 48.7962 133.85 48.7962C133.207 48.7962 132.608 48.6741 132.051 48.43C131.494 48.1816 131.064 47.8433 130.76 47.415C130.46 46.9868 130.31 46.5007 130.31 45.9568H131.55C131.55 46.5221 131.758 46.9696 132.173 47.2994C132.593 47.6249 133.152 47.7876 133.85 47.7876C134.501 47.7876 135 47.6549 135.347 47.3893C135.694 47.1238 135.867 46.7619 135.867 46.3037C135.867 45.8454 135.706 45.4921 135.385 45.2437C135.064 44.991 134.482 44.7426 133.638 44.4985ZM138.193 45.1281C138.193 44.4471 138.325 43.8347 138.591 43.2908C138.861 42.7469 139.233 42.3272 139.709 42.0317C140.188 41.7362 140.734 41.5884 141.347 41.5884C142.293 41.5884 143.058 41.916 143.64 42.5713C144.227 43.2265 144.52 44.0981 144.52 45.1859V45.2694C144.52 45.9461 144.39 46.5542 144.128 47.0938C143.871 47.6292 143.501 48.0467 143.017 48.3465C142.537 48.6463 141.985 48.7962 141.36 48.7962C140.417 48.7962 139.653 48.4686 139.066 47.8133C138.484 47.1581 138.193 46.2908 138.193 45.2116V45.1281ZM139.387 45.2694C139.387 46.0403 139.565 46.6591 139.921 47.126C140.28 47.5928 140.76 47.8262 141.36 47.8262C141.963 47.8262 142.443 47.5906 142.799 47.1195C143.154 46.6441 143.332 45.9803 143.332 45.1281C143.332 44.3657 143.15 43.749 142.786 43.2779C142.426 42.8026 141.946 42.5649 141.347 42.5649C140.76 42.5649 140.287 42.7983 139.927 43.2651C139.567 43.7319 139.387 44.4 139.387 45.2694ZM147.302 48.6677H146.113V38.8004H147.302V48.6677ZM153.501 47.9804C153.039 48.5243 152.36 48.7962 151.465 48.7962C150.724 48.7962 150.158 48.5821 149.769 48.1538C149.383 47.7212 149.188 47.0831 149.184 46.2394V41.7169H150.373V46.2073C150.373 47.2609 150.801 47.7876 151.657 47.7876C152.565 47.7876 153.169 47.4493 153.469 46.7726V41.7169H154.657V48.6677H153.527L153.501 47.9804ZM158.081 40.0338V41.7169H159.379V42.6355H158.081V46.9461C158.081 47.2245 158.139 47.4343 158.255 47.5756C158.37 47.7127 158.567 47.7812 158.846 47.7812C158.983 47.7812 159.171 47.7555 159.411 47.7041V48.6677C159.099 48.7534 158.794 48.7962 158.499 48.7962C157.968 48.7962 157.567 48.6356 157.298 48.3144C157.028 47.9932 156.893 47.5371 156.893 46.9461V42.6355H155.627V41.7169H156.893V40.0338H158.081ZM162.064 48.6677H160.876V41.7169H162.064V48.6677ZM160.779 39.8732C160.779 39.6805 160.837 39.5177 160.953 39.385C161.073 39.2522 161.248 39.1858 161.48 39.1858C161.711 39.1858 161.887 39.2522 162.006 39.385C162.126 39.5177 162.186 39.6805 162.186 39.8732C162.186 40.0659 162.126 40.2265 162.006 40.355C161.887 40.4835 161.711 40.5477 161.48 40.5477C161.248 40.5477 161.073 40.4835 160.953 40.355C160.837 40.2265 160.779 40.0659 160.779 39.8732ZM163.657 45.1281C163.657 44.4471 163.79 43.8347 164.056 43.2908C164.326 42.7469 164.698 42.3272 165.174 42.0317C165.653 41.7362 166.199 41.5884 166.812 41.5884C167.758 41.5884 168.523 41.916 169.105 42.5713C169.692 43.2265 169.985 44.0981 169.985 45.1859V45.2694C169.985 45.9461 169.855 46.5542 169.593 47.0938C169.336 47.6292 168.966 48.0467 168.482 48.3465C168.002 48.6463 167.45 48.7962 166.825 48.7962C165.882 48.7962 165.118 48.4686 164.531 47.8133C163.949 47.1581 163.657 46.2908 163.657 45.2116V45.1281ZM164.852 45.2694C164.852 46.0403 165.03 46.6591 165.386 47.126C165.745 47.5928 166.225 47.8262 166.825 47.8262C167.428 47.8262 167.908 47.5906 168.264 47.1195C168.619 46.6441 168.797 45.9803 168.797 45.1281C168.797 44.3657 168.615 43.749 168.251 43.2779C167.891 42.8026 167.411 42.5649 166.812 42.5649C166.225 42.5649 165.752 42.7983 165.392 43.2651C165.032 43.7319 164.852 44.4 164.852 45.2694ZM172.6 41.7169L172.638 42.5906C173.169 41.9225 173.863 41.5884 174.72 41.5884C176.189 41.5884 176.93 42.4171 176.942 44.0745V48.6677H175.754V44.0681C175.75 43.567 175.634 43.1966 175.407 42.9567C175.184 42.7169 174.835 42.597 174.36 42.597C173.975 42.597 173.636 42.6998 173.345 42.9053C173.054 43.1109 172.827 43.3807 172.664 43.7148V48.6677H171.476V41.7169H172.6ZM182.782 46.824C182.782 46.5028 182.66 46.2544 182.416 46.0788C182.176 45.899 181.754 45.7448 181.15 45.6163C180.551 45.4878 180.073 45.3336 179.718 45.1538C179.366 44.9739 179.105 44.7598 178.934 44.5114C178.767 44.263 178.683 43.9675 178.683 43.6248C178.683 43.0552 178.923 42.5734 179.403 42.1794C179.887 41.7854 180.503 41.5884 181.253 41.5884C182.041 41.5884 182.679 41.7918 183.167 42.1987C183.66 42.6056 183.906 43.1259 183.906 43.7597H182.711C182.711 43.4343 182.572 43.1537 182.294 42.9182C182.02 42.6826 181.673 42.5649 181.253 42.5649C180.82 42.5649 180.482 42.6591 180.238 42.8475C179.994 43.036 179.872 43.2822 179.872 43.5863C179.872 43.8732 179.985 44.0895 180.212 44.2351C180.439 44.3807 180.848 44.5199 181.439 44.6527C182.035 44.7855 182.516 44.9439 182.885 45.1281C183.253 45.3122 183.525 45.5349 183.701 45.7962C183.88 46.0531 183.97 46.3679 183.97 46.7405C183.97 47.3615 183.722 47.8604 183.225 48.2373C182.728 48.6099 182.084 48.7962 181.292 48.7962C180.735 48.7962 180.242 48.6977 179.814 48.5007C179.386 48.3037 179.05 48.0296 178.805 47.6784C178.566 47.323 178.446 46.9397 178.446 46.5285H179.634C179.656 46.9268 179.814 47.2437 180.109 47.4793C180.409 47.7105 180.803 47.8262 181.292 47.8262C181.741 47.8262 182.101 47.7362 182.371 47.5564C182.645 47.3722 182.782 47.1281 182.782 46.824ZM190.292 48.6677H189.058V39.3143H190.292V48.6677ZM193.491 41.7169L193.529 42.5906C194.06 41.9225 194.754 41.5884 195.611 41.5884C197.08 41.5884 197.821 42.4171 197.833 44.0745V48.6677H196.645V44.0681C196.641 43.567 196.525 43.1966 196.298 42.9567C196.075 42.7169 195.726 42.597 195.251 42.597C194.866 42.597 194.527 42.6998 194.236 42.9053C193.945 43.1109 193.718 43.3807 193.555 43.7148V48.6677H192.367V41.7169H193.491ZM202.414 47.8262C202.838 47.8262 203.208 47.6977 203.525 47.4407C203.842 47.1838 204.018 46.8626 204.052 46.4771H205.176C205.155 46.8754 205.018 47.2544 204.765 47.6142C204.512 47.9739 204.174 48.2609 203.75 48.475C203.33 48.6891 202.885 48.7962 202.414 48.7962C201.467 48.7962 200.714 48.4814 200.153 47.8519C199.596 47.218 199.317 46.3529 199.317 45.2565V45.0574C199.317 44.3807 199.442 43.779 199.69 43.2522C199.938 42.7255 200.294 42.3165 200.756 42.0252C201.223 41.734 201.774 41.5884 202.407 41.5884C203.187 41.5884 203.834 41.8218 204.347 42.2886C204.866 42.7555 205.142 43.3615 205.176 44.1066H204.052C204.018 43.657 203.846 43.2886 203.538 43.0017C203.234 42.7105 202.857 42.5649 202.407 42.5649C201.804 42.5649 201.335 42.7833 201.001 43.2201C200.671 43.6527 200.506 44.2801 200.506 45.1024V45.3272C200.506 46.1281 200.671 46.7448 201.001 47.1773C201.33 47.6099 201.801 47.8262 202.414 47.8262ZM206.538 48.0446C206.538 47.839 206.598 47.6677 206.718 47.5307C206.842 47.3936 207.026 47.3251 207.27 47.3251C207.515 47.3251 207.699 47.3936 207.823 47.5307C207.951 47.6677 208.016 47.839 208.016 48.0446C208.016 48.2416 207.951 48.4065 207.823 48.5392C207.699 48.672 207.515 48.7384 207.27 48.7384C207.026 48.7384 206.842 48.672 206.718 48.5392C206.598 48.4065 206.538 48.2416 206.538 48.0446Z" fill="#4913D5"/>
</svg>
